PathFileType	4	(X/Y/Z)	C:/Users/rsk02/Documents/GitHub/TechForParalysis/Code/Model/Data/ABD_NL001_FP03.trc	
DataRate	CameraRate	NumFrames	NumMarkers	Units	OrigDataRate	OrigDataStartFrame	OrigNumFrames	
100.00	100.00	16	24	m	100.00	994	1589	
Frame#	Time	EpL			EpM			rs			us			aa			ai			ts			acc			gu			c7			t8			ij			px			ij_proj_c7			ij_proj_px			ij_proj_ac			ai_proj_aa_x			ai_proj_ts			ai_proj_aa_z			centelbow_humerus			centusrs			centelbow_ulna			ac			ijc			
		X1	Y1	Z1	X2	Y2	Z2	X3	Y3	Z3	X4	Y4	Z4	X5	Y5	Z5	X6	Y6	Z6	X7	Y7	Z7	X8	Y8	Z8	X9	Y9	Z9	X10	Y10	Z10	X11	Y11	Z11	X12	Y12	Z12	X13	Y13	Z13	X14	Y14	Z14	X15	Y15	Z15	X16	Y16	Z16	X17	Y17	Z17	X18	Y18	Z18	X19	Y19	Z19	X20	Y20	Z20	X21	Y21	Z21	X22	Y22	Z22	X23	Y23	Z23	X24	Y24	Z24	

994	9.930	0.15782	1.26365	0.04505	0.18632	1.20781	0.04806	0.24266	1.28204	0.25361	0.19688	1.27901	0.27159	0.14848	1.27538	-0.17416	0.12537	1.12842	-0.21781	0.12590	1.21393	-0.26743	0.16777	1.28222	-0.21132	0.18202	1.24518	-0.19480	0.16047	1.27638	-0.31397	0.10679	1.09512	-0.27337	0.24739	1.22043	-0.29730	0.26650	1.09100	-0.27556	0.16047	1.22043	-0.29730	0.24739	1.09100	-0.29730	0.24739	1.22043	-0.21132	0.14848	1.12842	-0.21781	0.12537	1.21393	-0.21781	0.12537	1.12842	-0.17416	0.17207	1.23573	0.04656	0.21977	1.28052	0.26260	0.17207	1.23573	0.04655	0.16777	1.28222	-0.21130	0.24739	1.22043	-0.29700 
995	9.940	0.15787	1.25683	0.04596	0.18634	1.20091	0.04749	0.24516	1.26919	0.25269	0.20016	1.26531	0.27239	0.14698	1.27472	-0.17317	0.12334	1.12804	-0.21749	0.12542	1.21364	-0.26693	0.16694	1.28146	-0.20999	0.18060	1.24427	-0.19331	0.16017	1.27653	-0.31489	0.10595	1.09515	-0.27561	0.24687	1.22048	-0.29748	0.26567	1.09095	-0.27603	0.16017	1.22048	-0.29748	0.24687	1.09095	-0.29748	0.24687	1.22048	-0.20999	0.14698	1.12804	-0.21749	0.12334	1.21364	-0.21749	0.12334	1.12804	-0.17317	0.17210	1.22887	0.04673	0.22266	1.26725	0.26254	0.17210	1.22887	0.04672	0.16694	1.28146	-0.20990	0.24687	1.22048	-0.29740 
996	9.950	0.15772	1.24972	0.04653	0.18613	1.19375	0.04658	0.24490	1.25648	0.25469	0.19943	1.25278	0.27331	0.14640	1.27269	-0.17442	0.11894	1.12816	-0.22336	0.12142	1.21545	-0.26974	0.16558	1.28042	-0.21146	0.17894	1.24240	-0.19647	0.15982	1.27648	-0.31485	0.10566	1.09498	-0.27599	0.24654	1.22043	-0.29745	0.26539	1.09088	-0.27625	0.15982	1.22043	-0.29745	0.24654	1.09088	-0.29745	0.24654	1.22043	-0.21146	0.14640	1.12816	-0.22336	0.11894	1.21545	-0.22336	0.11894	1.12816	-0.17442	0.17192	1.22173	0.04656	0.22217	1.25463	0.26400	0.17192	1.22173	0.04655	0.16558	1.28042	-0.21140	0.24654	1.22043	-0.29740 
997	9.960	0.15729	1.24232	0.04678	0.18562	1.18633	0.04522	0.24538	1.24289	0.25431	0.19996	1.23891	0.27299	0.14619	1.27211	-0.17288	0.12080	1.12771	-0.22329	0.12349	1.21532	-0.26904	0.16601	1.28023	-0.20950	0.17938	1.24222	-0.19450	0.15914	1.27607	-0.31466	0.10560	1.09434	-0.27603	0.24605	1.22028	-0.29741	0.26534	1.09075	-0.27642	0.15914	1.22028	-0.29741	0.24605	1.09075	-0.29741	0.24605	1.22028	-0.20950	0.14619	1.12771	-0.22329	0.12080	1.21532	-0.22329	0.12080	1.12771	-0.17288	0.17146	1.21432	0.04600	0.22267	1.24090	0.26365	0.17146	1.21432	0.04600	0.16601	1.28023	-0.20900	0.24605	1.22028	-0.29740 
998	9.970	0.15696	1.23494	0.04681	0.18561	1.17917	0.04376	0.24617	1.22989	0.25358	0.20082	1.22521	0.27228	0.14893	1.27316	-0.17003	0.13161	1.12691	-0.21848	0.13024	1.21385	-0.26553	0.16870	1.28176	-0.20657	0.18386	1.24472	-0.19086	0.15877	1.27600	-0.31435	0.10538	1.09418	-0.27594	0.24574	1.22022	-0.29732	0.26512	1.09067	-0.27656	0.15877	1.22022	-0.29732	0.24574	1.09067	-0.29732	0.24574	1.22022	-0.20657	0.14893	1.12691	-0.21848	0.13161	1.21385	-0.21848	0.13161	1.12691	-0.17003	0.17128	1.20706	0.04529	0.22349	1.22755	0.26293	0.17128	1.20706	0.04528	0.16870	1.28176	-0.20650	0.24574	1.22022	-0.29730 
999	9.980	0.15686	1.22725	0.04672	0.18605	1.17189	0.04187	0.24840	1.21711	0.25190	0.20380	1.21173	0.27216	0.14831	1.27192	-0.16923	0.12840	1.12656	-0.21935	0.12807	1.21410	-0.26531	0.16797	1.28066	-0.20579	0.18266	1.24320	-0.19065	0.15829	1.27588	-0.31377	0.10523	1.09395	-0.27542	0.24538	1.22017	-0.29717	0.26497	1.09061	-0.27668	0.15829	1.22017	-0.29717	0.24538	1.09061	-0.29717	0.24538	1.22017	-0.20579	0.14831	1.12656	-0.21935	0.12840	1.21410	-0.21935	0.12840	1.12656	-0.16923	0.17145	1.19957	0.04429	0.22610	1.21442	0.26203	0.17145	1.19957	0.04429	0.16797	1.28066	-0.20570	0.24538	1.22017	-0.29710 
1000	9.990	0.15663	1.22006	0.04665	0.18633	1.16513	0.04033	0.24878	1.20399	0.25133	0.20412	1.19814	0.27130	0.14840	1.27218	-0.16785	0.13128	1.12636	-0.21766	0.13041	1.21371	-0.26399	0.16848	1.28106	-0.20416	0.18346	1.24387	-0.18864	0.15812	1.27612	-0.31297	0.10479	1.09425	-0.27474	0.24515	1.22016	-0.29690	0.26451	1.09050	-0.27677	0.15812	1.22016	-0.29690	0.24515	1.09050	-0.29690	0.24515	1.22016	-0.20416	0.14840	1.12636	-0.21766	0.13128	1.21371	-0.21766	0.13128	1.12636	-0.16785	0.17148	1.19259	0.04349	0.22645	1.20106	0.26131	0.17148	1.19259	0.04349	0.16848	1.28106	-0.20410	0.24515	1.22016	-0.29600 
1001	10.000	0.15647	1.21297	0.04642	0.18584	1.15804	0.03868	0.24952	1.19139	0.25046	0.20499	1.18473	0.27049	0.14733	1.27181	-0.16705	0.12870	1.12618	-0.21686	0.12925	1.21349	-0.26326	0.16777	1.28040	-0.20322	0.18217	1.24304	-0.18757	0.15742	1.27584	-0.31193	0.10479	1.09384	-0.27335	0.24470	1.22006	-0.29658	0.26449	1.09044	-0.27666	0.15742	1.22006	-0.29658	0.24470	1.09044	-0.29658	0.24470	1.22006	-0.20322	0.14733	1.12618	-0.21686	0.12870	1.21349	-0.21686	0.12870	1.12618	-0.16705	0.17116	1.18550	0.04255	0.22726	1.18806	0.26048	0.17116	1.18550	0.04255	0.16777	1.28040	-0.20320	0.24470	1.22006	-0.29650 
1002	10.010	0.15683	1.20597	0.04620	0.18705	1.15174	0.03697	0.24993	1.17822	0.24945	0.20534	1.17090	0.26911	0.14531	1.27082	-0.16681	0.12307	1.12606	-0.21768	0.12674	1.21356	-0.26357	0.16643	1.27900	-0.20268	0.17955	1.24115	-0.18707	0.15727	1.27588	-0.31227	0.10435	1.09367	-0.27509	0.24442	1.22004	-0.29644	0.26408	1.09032	-0.27703	0.15727	1.22004	-0.29644	0.24442	1.09032	-0.29644	0.24442	1.22004	-0.20268	0.14531	1.12606	-0.21768	0.12307	1.21356	-0.21768	0.12307	1.12606	-0.16681	0.17194	1.17886	0.04159	0.22763	1.17456	0.25928	0.17194	1.17886	0.04158	0.16643	1.27900	-0.20260	0.24442	1.22004	-0.29640 
1003	10.020	0.15736	1.19912	0.04588	0.18778	1.14530	0.03503	0.24964	1.16480	0.24868	0.20475	1.15713	0.26750	0.14488	1.27045	-0.16683	0.12220	1.12588	-0.21804	0.12579	1.21351	-0.26368	0.16586	1.27871	-0.20277	0.17899	1.24079	-0.18734	0.15740	1.27666	-0.31149	0.10332	1.09472	-0.27465	0.24420	1.22020	-0.29595	0.26302	1.09031	-0.27687	0.15740	1.22020	-0.29595	0.24420	1.09031	-0.29595	0.24420	1.22020	-0.20277	0.14488	1.12588	-0.21804	0.12220	1.21351	-0.21804	0.12220	1.12588	-0.16683	0.17257	1.17221	0.04046	0.22720	1.16096	0.25809	0.17257	1.17221	0.04045	0.16586	1.27871	-0.20270	0.24420	1.22020	-0.29590 
1004	10.030	0.15813	1.19240	0.04530	0.18840	1.13886	0.03276	0.25002	1.15131	0.24654	0.20512	1.14299	0.26507	0.14268	1.26893	-0.16657	0.11656	1.12591	-0.22043	0.12284	1.21418	-0.26452	0.16415	1.27724	-0.20220	0.17614	1.23872	-0.18733	0.15638	1.27590	-0.31116	0.10370	1.09341	-0.27497	0.24360	1.22010	-0.29557	0.26343	1.09031	-0.27682	0.15638	1.22010	-0.29557	0.24360	1.09031	-0.29557	0.24360	1.22010	-0.20220	0.14268	1.12591	-0.22043	0.11656	1.21418	-0.22043	0.11656	1.12591	-0.16657	0.17326	1.16563	0.03903	0.22757	1.14715	0.25580	0.17326	1.16563	0.03903	0.16415	1.27724	-0.20200	0.24360	1.22010	-0.29550 
1005	10.040	0.15889	1.18605	0.04455	0.18965	1.13313	0.03065	0.25063	1.13862	0.24436	0.20556	1.12951	0.26206	0.14274	1.26804	-0.16572	0.11726	1.12548	-0.22109	0.12248	1.21433	-0.26416	0.16383	1.27695	-0.20144	0.17625	1.23835	-0.18713	0.15610	1.27607	-0.31051	0.10335	1.09349	-0.27494	0.24330	1.22018	-0.29512	0.26308	1.09032	-0.27681	0.15610	1.22018	-0.29512	0.24330	1.09032	-0.29512	0.24330	1.22018	-0.20144	0.14274	1.12548	-0.22109	0.11726	1.21433	-0.22109	0.11726	1.12548	-0.16572	0.17427	1.15959	0.03760	0.22810	1.13406	0.25321	0.17427	1.15959	0.03759	0.16383	1.27695	-0.20140	0.24330	1.22018	-0.29510 
1006	10.050	0.15953	1.17935	0.04344	0.19047	1.12697	0.02799	0.25152	1.12609	0.24140	0.20645	1.11621	0.25868	0.14367	1.26834	-0.16338	0.12445	1.12465	-0.21835	0.12679	1.21344	-0.26180	0.16487	1.27790	-0.19886	0.17858	1.23988	-0.18420	0.15621	1.27664	-0.31050	0.10270	1.09413	-0.27572	0.24315	1.22043	-0.29482	0.26243	1.09046	-0.27678	0.15621	1.22043	-0.29482	0.24315	1.09046	-0.29482	0.24315	1.22043	-0.19886	0.14367	1.12465	-0.21835	0.12445	1.21344	-0.21835	0.12445	1.12465	-0.16338	0.17500	1.15316	0.03571	0.22898	1.12115	0.25004	0.17500	1.15316	0.03571	0.16487	1.27790	-0.19880	0.24315	1.22043	-0.29480 
1007	10.060	0.16021	1.17277	0.04204	0.19075	1.12066	0.02495	0.25227	1.11406	0.23894	0.20705	1.10387	0.25567	0.14352	1.26745	-0.16289	0.12349	1.12480	-0.22023	0.12519	1.21438	-0.26205	0.16420	1.27767	-0.19850	0.17812	1.23938	-0.18475	0.15513	1.27559	-0.31194	0.10282	1.09244	-0.27873	0.24234	1.22019	-0.29492	0.26258	1.09034	-0.27699	0.15513	1.22019	-0.29492	0.24234	1.09034	-0.29492	0.24234	1.22019	-0.19850	0.14352	1.12480	-0.22023	0.12349	1.21438	-0.22023	0.12349	1.12480	-0.16289	0.17548	1.14671	0.03350	0.22966	1.10897	0.24730	0.17548	1.14671	0.03349	0.16420	1.27767	-0.19800	0.24234	1.22019	-0.29490 
1008	10.070	0.16079	1.16633	0.04060	0.19101	1.11456	0.02199	0.25298	1.10197	0.23516	0.20781	1.09145	0.25179	0.14291	1.26700	-0.16189	0.12239	1.12469	-0.21990	0.12528	1.21437	-0.26141	0.16406	1.27716	-0.19723	0.17753	1.23872	-0.18345	0.15599	1.27705	-0.31111	0.10160	1.09446	-0.27815	0.24258	1.22058	-0.29444	0.26132	1.09047	-0.27683	0.15599	1.22058	-0.29444	0.24258	1.09047	-0.29444	0.24258	1.22058	-0.19723	0.14291	1.12469	-0.21990	0.12239	1.21437	-0.21990	0.12239	1.12469	-0.16189	0.17590	1.14045	0.03129	0.23039	1.09671	0.24348	0.17590	1.14045	0.03129	0.16406	1.27716	-0.19720	0.24258	1.22058	-0.29440 
1009	10.080	0.16187	1.15990	0.03881	0.19144	1.10844	0.01838	0.25374	1.09000	0.23130	0.20864	1.07911	0.24788	0.14300	1.26694	-0.16140	0.12134	1.12497	-0.21980	0.12441	1.21479	-0.26100	0.16396	1.27713	-0.19685	0.17733	1.23857	-0.18331	0.15622	1.27793	-0.30863	0.10119	1.09572	-0.27462	0.24271	1.22086	-0.29355	0.26088	1.09063	-0.27626	0.15622	1.22086	-0.29355	0.24271	1.09063	-0.29355	0.24271	1.22086	-0.19685	0.14300	1.12497	-0.21980	0.12134	1.21479	-0.21980	0.12134	1.12497	-0.16140	0.17666	1.13417	0.02859	0.23119	1.08455	0.23959	0.17666	1.13417	0.02859	0.16396	1.27713	-0.19680	0.24271	1.22086	-0.29350 
